<?xml version="1.0" encoding="UTF-8"?>
<svg width="80px" height="80px" viewBox="0 0 80 80" version="1.1" xmlns="http://www.w3.org/2000/svg" xmlns:xlink="http://www.w3.org/1999/xlink">
    <!-- Generator: Sketch 46.1 (44463) - http://www.bohemiancoding.com/sketch -->
    <title>Icons / Illustration / Lapsi</title>
    <desc>Created with Sketch.</desc>
    <defs></defs>
    <g id="Symbols" stroke="none" stroke-width="1" fill="none" fill-rule="evenodd">
        <g id="Icons-/-Illustration-/-Lapsi">
            <path d="M67,72 L65,72 L65,59 C65,52.376 58.536,49.233 54.684,47.949 C54.639,47.934 54.595,47.916 54.553,47.895 L48.553,44.895 C47.991,44.644 45,43.193 45,41 L45,37 L47,37 L47,41 C47,41.649 48.424,42.646 49.409,43.087 L55.384,46.074 C62.768,48.555 67,53.264 67,59 L67,72" id="Fill-104" fill="#A5ACB0"></path>
            <path d="M15,72 L13,72 L13,59 C13,53.264 17.232,48.555 24.616,46.074 L30.553,43.105 C31.729,42.574 33,41.589 33,41 L33,37 L35,37 L35,41 C35,43.193 32.009,44.644 31.409,44.913 L25.447,47.895 C25.405,47.916 25.361,47.934 25.316,47.949 C21.464,49.233 15,52.376 15,59 L15,72" id="Fill-105" fill="#A5ACB0"></path>
            <polygon id="Fill-106" fill="#A5ACB0" points="23 72 25 72 25 64 23 64"></polygon>
            <polygon id="Fill-107" fill="#A5ACB0" points="55 72 57 72 57 64 55 64"></polygon>
            <path d="M45,59 L53,59 L53,67 L49,68 L45,67 L45,59 Z M47,61 L47.0015043,65.5003761 L49,66 L51,65.5003761 L51,61 L47,61 Z" id="Combined-Shape" fill="#EA7125"></path>
            <path d="M30.009,23.646 C30.167,29.269 32.404,38 40,38 C47.499,38 49.774,29.492 49.983,23.864 C47.358,23.462 41.491,22.361 37.928,20.126 L30.009,23.646 Z M40,40 C31.711,40 28,31.462 28,23 C28,22.605 28.232,22.247 28.594,22.086 L36.175,18.717 C35.439,17.922 35,17.02 35,16 L37,16 C37,18.845 45.264,21.227 51.132,22.009 C51.629,22.075 52,22.499 52,23 C52,31.462 48.289,40 40,40 L40,40 Z" id="Fill-108" fill="#A5ACB0"></path>
            <path d="M51.707,26.707 L50.293,25.293 L52,23.586 L52,19 C52,14.038 47.963,10 43,10 L37,10 C32.037,10 28,14.038 28,19 L28,23.586 L29.707,25.293 L28.293,26.707 L26.293,24.707 C26.105,24.52 26,24.265 26,24 L26,19 C26,12.935 30.935,8 37,8 L43,8 C49.065,8 54,12.935 54,19 L54,24 C54,24.265 53.895,24.52 53.707,24.707 L51.707,26.707" id="Fill-109" fill="#A5ACB0"></path>
            <path d="M40,54 C34.486,54 30,49.514 30,44 L32,44 C32,48.411 35.589,52 40,52 C44.411,52 48,48.411 48,44 L50,44 C50,49.514 45.514,54 40,54" id="Fill-110" fill="#A5ACB0"></path>
        </g>
    </g>
</svg>