<?xml version="1.0" encoding="UTF-8"?>
<svg width="80px" height="80px" viewBox="0 0 80 80" version="1.1" xmlns="http://www.w3.org/2000/svg" xmlns:xlink="http://www.w3.org/1999/xlink">
    <!-- Generator: Sketch 46.1 (44463) - http://www.bohemiancoding.com/sketch -->
    <title>Icons / Illustration / Nainen 1</title>
    <desc>Created with Sketch.</desc>
    <defs></defs>
    <g id="Symbols" stroke="none" stroke-width="1" fill="none" fill-rule="evenodd">
        <g id="Icons-/-Illustration-/-Nainen-1">
            <polygon id="Fill-225" fill="#A5ACB0" points="23 72 25 72 25 64 23 64"></polygon>
            <polygon id="Fill-226" fill="#A5ACB0" points="55 72 57 72 57 64 55 64"></polygon>
            <path d="M67,72 L65,72 L65,59 C65,53.778 60.916,52.025 54.684,49.948 C50.266,48.477 45,46.249 45,44 L45,37 L47,37 L47,44 C47.294,44.746 51.185,46.674 55.316,48.052 C60.793,49.877 67,51.946 67,59 L67,72" id="Fill-227" fill="#A5ACB0"></path>
            <path d="M15,72 L13,72 L13,59 C13,51.946 19.207,49.877 24.684,48.052 C28.815,46.674 32.706,44.746 33.01,43.928 L33,37 L35,37 L35,44 C35,46.249 29.734,48.477 25.316,49.948 C19.084,52.025 15,53.778 15,59 L15,72" id="Fill-228" fill="#A5ACB0"></path>
            <path d="M32,22.899 L32,25 C32,33.025 33.338,38 40,38 C46.662,38 48,33.025 48,25 L48,21.645 C46.628,22.259 44.461,23 42,23 C39.107,23 36.618,22.087 35.216,20.687 C34.499,21.808 33.347,22.625 32,22.899 Z M40,40 C30,40 30,29.869 30,25 L30,22 C30,21.447 30.448,21 31,21 C32.654,21 34,19.654 34,18 C34,17.447 34.448,17 35,17 C35.552,17 36,17.447 36,18 C36,19.419 38.464,21 42,21 C45.533,21 48.433,19.176 48.462,19.157 C48.77,18.961 49.161,18.948 49.48,19.123 C49.801,19.299 50,19.635 50,20 L50,25 C50,29.869 50,40 40,40 L40,40 Z" id="Fill-229" fill="#A5ACB0"></path>
            <path d="M48,41 L48,39 C51.86,39 55,35.859 55,32 C55,30.671 54.709,29.493 54.134,28.501 L55.866,27.499 C56.618,28.8 57,30.314 57,32 C57,36.963 52.962,41 48,41" id="Fill-230" fill="#A5ACB0"></path>
            <path d="M52,31 L52,29 C54.154,29 56,26.251 56,24 C56,21.749 54.154,19 52,19 C51.448,19 51,18.553 51,18 C51,13.29 47.299,10 42,10 L38,10 C32.701,10 29,13.29 29,18 C29,18.553 28.552,19 28,19 C25.846,19 24,21.749 24,24 C24,26.251 25.846,29 28,29 L28,31 C24.621,31 22,27.237 22,24 C22,21.078 24.136,17.727 27.038,17.103 C27.489,11.776 31.96,8 38,8 L42,8 C48.04,8 52.511,11.776 52.962,17.103 C55.864,17.727 58,21.078 58,24 C58,27.237 55.379,31 52,31" id="Fill-231" fill="#A5ACB0"></path>
            <path d="M32,41 C27.038,41 23,36.963 23,32 C23,30.314 23.382,28.8 24.134,27.499 L25.866,28.501 C25.291,29.493 25,30.671 25,32 C25,35.859 28.14,39 32,39 L32,41" id="Fill-232" fill="#A5ACB0"></path>
            <path d="M40,64 C39.861,64 39.721,63.971 39.591,63.913 C39.077,63.683 27,58.192 27,51 L27,48 L29,48 L29,51 C29,55.706 36.583,60.281 40,61.898 C43.417,60.278 51,55.699 51,51 L51,48 L53,48 L53,51 C53,58.192 40.923,63.683 40.409,63.913 C40.279,63.971 40.139,64 40,64" id="Fill-233" fill="#A5ACB0"></path>
            <polygon id="Fill-234" fill="#EA7125" points="33 49 35 49 35 47 33 47"></polygon>
            <polygon id="Fill-235" fill="#EA7125" points="36 50 38 50 38 48 36 48"></polygon>
            <polygon id="Fill-236" fill="#EA7125" points="39 51 41 51 41 49 39 49"></polygon>
            <polygon id="Fill-237" fill="#EA7125" points="39 54 41 54 41 52 39 52"></polygon>
            <polygon id="Fill-238" fill="#EA7125" points="42 50 44 50 44 48 42 48"></polygon>
            <polygon id="Fill-239" fill="#EA7125" points="45 49 47 49 47 47 45 47"></polygon>
        </g>
    </g>
</svg>