<?xml version="1.0" encoding="UTF-8"?>
<svg width="30px" height="30px" viewBox="0 0 30 30" version="1.1" xmlns="http://www.w3.org/2000/svg" xmlns:xlink="http://www.w3.org/1999/xlink">
    <!-- Generator: Sketch 46.1 (44463) - http://www.bohemiancoding.com/sketch -->
    <title>Icons / Utility / Info</title>
    <desc>Created with Sketch.</desc>
    <defs></defs>
    <g id="Symbols" stroke="none" stroke-width="1" fill="none" fill-rule="evenodd">
        <g id="Icons-/-Utility-/-Info">
            <circle id="Oval" stroke="#84898C" cx="15" cy="15" r="11.5"></circle>
            <path d="M17.1486816,19.0922852 L17.0090332,19.6635742 C16.5900858,19.8286141 16.2557792,19.954508 16.0061035,20.0412598 C15.7564278,20.1280115 15.4665544,20.1713867 15.1364746,20.1713867 C14.6286596,20.1713867 14.2340509,20.0476087 13.9526367,19.8000488 C13.6712226,19.552489 13.5305176,19.2382832 13.5305176,18.8574219 C13.5305176,18.7093092 13.5410969,18.5580249 13.5622559,18.4035645 C13.5834148,18.249104 13.6172686,18.0745452 13.6638184,17.8798828 L14.1843262,16.0263672 C14.2308759,15.8486319 14.2700194,15.6804207 14.3017578,15.5217285 C14.3334963,15.3630363 14.3493652,15.2180996 14.3493652,15.0869141 C14.3493652,14.8499337 14.3007004,14.6848963 14.2033691,14.5917969 C14.1060379,14.4986975 13.9198419,14.4521484 13.6447754,14.4521484 C13.509358,14.4521484 13.3707689,14.4733071 13.2290039,14.515625 C13.0872389,14.5579429 12.9655767,14.5981443 12.8640137,14.6362305 L13.0036621,14.0649414 C13.3464373,13.9252923 13.6743962,13.8057459 13.9875488,13.7062988 C14.3007014,13.6068517 14.5969224,13.5571289 14.8762207,13.5571289 C15.379804,13.5571289 15.768065,13.6787911 16.0410156,13.9221191 C16.3139662,14.1654472 16.4504395,14.4817689 16.4504395,14.8710938 C16.4504395,14.9514978 16.4409181,15.0932607 16.421875,15.2963867 C16.4028319,15.4995127 16.3679202,15.6857088 16.3171387,15.8549805 L15.7966309,17.7021484 C15.7543129,17.8502612 15.7162274,18.0195303 15.682373,18.2099609 C15.6485187,18.4003916 15.6315918,18.5442703 15.6315918,18.6416016 C15.6315918,18.8870455 15.6866043,19.0541988 15.7966309,19.1430664 C15.9066575,19.231934 16.0970852,19.2763672 16.3679199,19.2763672 C16.4948737,19.2763672 16.6387525,19.2541506 16.7995605,19.2097168 C16.9603686,19.165283 17.0767412,19.1261395 17.1486816,19.0922852 Z M17.2819824,11.3417969 C17.2819824,11.6634131 17.1603202,11.9374175 16.9169922,12.1638184 C16.6736641,12.3902192 16.3806169,12.503418 16.0378418,12.503418 C15.6950666,12.503418 15.4009615,12.3902192 15.1555176,12.1638184 C14.9100736,11.9374175 14.7873535,11.6634131 14.7873535,11.3417969 C14.7873535,11.0201807 14.9100736,10.7451183 15.1555176,10.5166016 C15.4009615,10.2880848 15.6950666,10.1738281 16.0378418,10.1738281 C16.3806169,10.1738281 16.6736641,10.2880848 16.9169922,10.5166016 C17.1603202,10.7451183 17.2819824,11.0201807 17.2819824,11.3417969 Z" id="i" fill="#636769"></path>
        </g>
    </g>
</svg>