<?xml version="1.0" encoding="UTF-8"?>
<svg width="30px" height="30px" viewBox="0 0 30 30" version="1.1" xmlns="http://www.w3.org/2000/svg" xmlns:xlink="http://www.w3.org/1999/xlink">
    <!-- Generator: Sketch 46.1 (44463) - http://www.bohemiancoding.com/sketch -->
    <title>Icons / Utility / Search</title>
    <desc>Created with Sketch.</desc>
    <defs></defs>
    <g id="Symbols" stroke="none" stroke-width="1" fill="none" fill-rule="evenodd">
        <g id="Icons-/-Utility-/-Search" fill="#636769">
            <path d="M9.42329384,9.42331499 C11.3527827,7.49401184 14.4809518,7.49401184 16.4103418,9.42331499 C18.3397319,11.3527169 18.3397319,14.4809054 16.4103418,16.4104061 C14.4809518,18.3398081 11.3527827,18.3398081 9.42329384,16.4104061 C7.4939038,14.4809054 7.4939038,11.3527169 9.42329384,9.42331499 Z M18.455934,17.0586125 C20.4869021,14.3493867 20.2715922,10.4897923 17.8077317,8.02591652 C15.1065263,5.32469449 10.7271094,5.32469449 8.02590401,8.02591652 C5.32469866,10.7271385 5.32469866,15.1065826 8.02590401,17.8078046 C10.4897645,20.2716803 14.3493351,20.4869916 17.0585442,18.4560109 L22.6000004,24 L24,22.6000004 L18.455934,17.0586125 Z" id="Fill-1-Copy"></path>
        </g>
    </g>
</svg>