<?xml version="1.0" encoding="UTF-8"?>
<svg width="30px" height="30px" viewBox="0 0 30 30" version="1.1" xmlns="http://www.w3.org/2000/svg" xmlns:xlink="http://www.w3.org/1999/xlink">
    <!-- Generator: Sketch 46.1 (44463) - http://www.bohemiancoding.com/sketch -->
    <title>Icons / Utility / Messages</title>
    <desc>Created with Sketch.</desc>
    <defs></defs>
    <g id="Symbols" stroke="none" stroke-width="1" fill="none" fill-rule="evenodd">
        <g id="Icons-/-Utility-/-Messages" fill="#636769">
            <g id="email" transform="translate(3.000000, 6.000000)">
                <path d="M21,18 L3,18 C1.346,18 0,16.654 0,15 L0,3 C0,1.346 1.346,0 3,0 L21,0 C22.654,0 24,1.346 24,3 L24,15 C24,16.654 22.654,18 21,18 Z M3,16 L21,16 C21.551,16 22,15.551 22,15 L22,3.203 L12.628,10.778 C12.445,10.926 12.223,11 12,11 C11.777,11 11.555,10.926 11.372,10.778 L2,3.203 L2,15 C2,15.551 2.449,16 3,16 Z M20.307,2 L3.693,2 L12,8.715 L20.307,2 Z" id="Shape"></path>
            </g>
        </g>
    </g>
</svg>