<?xml version="1.0" encoding="UTF-8"?>
<svg width="30px" height="30px" viewBox="0 0 30 30" version="1.1" xmlns="http://www.w3.org/2000/svg" xmlns:xlink="http://www.w3.org/1999/xlink">
    <!-- Generator: Sketch 46.1 (44463) - http://www.bohemiancoding.com/sketch -->
    <title>Icons / Utility / Close</title>
    <desc>Created with Sketch.</desc>
    <defs></defs>
    <g id="Symbols" stroke="none" stroke-width="1" fill="none" fill-rule="evenodd">
        <g id="Icons-/-Utility-/-Close" fill="#636769">
            <g id="Group-2" transform="translate(5.000000, 5.000000)">
                <path d="M21,11 L-1,11 C-1.552,11 -2,10.552 -2,10 C-2,9.448 -1.552,9 -1,9 L21,9 C21.552,9 22,9.448 22,10 C22,10.552 21.552,11 21,11 Z" id="Path" transform="translate(10.000000, 10.000000) rotate(45.000000) translate(-10.000000, -10.000000) "></path>
                <path d="M21,11 L-1,11 C-1.552,11 -2,10.552 -2,10 C-2,9.448 -1.552,9 -1,9 L21,9 C21.552,9 22,9.448 22,10 C22,10.552 21.552,11 21,11 Z" id="Path-Copy" transform="translate(10.000000, 10.000000) rotate(-45.000000) translate(-10.000000, -10.000000) "></path>
            </g>
        </g>
    </g>
</svg>