<?xml version="1.0" encoding="UTF-8"?>
<svg width="30px" height="30px" viewBox="0 0 30 30" version="1.1" xmlns="http://www.w3.org/2000/svg" xmlns:xlink="http://www.w3.org/1999/xlink">
    <!-- Generator: Sketch 46.1 (44463) - http://www.bohemiancoding.com/sketch -->
    <title>Icons / Utility / Notifications</title>
    <desc>Created with Sketch.</desc>
    <defs></defs>
    <g id="Symbols" stroke="none" stroke-width="1" fill="none" fill-rule="evenodd">
        <g id="Icons-/-Utility-/-Notifications" fill="#636769">
            <path d="M20,21 L19,21 L11,21 L10,21 L7.128,21 C7.353,20.145 7.863,19.38 8.603,18.82 C8.854,18.631 9,18.313 9,18 L9,12 C9,8.691 11.691,6 15,6 C18.309,6 21,8.691 21,12 L21,18.022 C21,18.336 21.146,18.631 21.397,18.82 C22.137,19.38 22.647,20.145 22.872,21 L20,21 Z M15.672,24.916 C15.18,25.029 14.82,25.029 14.328,24.916 C13.299,24.68 12.503,23.945 12.17,23 L17.83,23 C17.497,23.945 16.701,24.68 15.672,24.916 L15.672,24.916 Z M23,12 C23,7.589 19.411,4 15,4 C10.589,4 7,7.589 7,12 L7,17.551 C5.723,18.692 5,20.287 5,22 C5,22.553 5.447,23 6,23 L10,23 L10.1,23 C10.48,24.894 11.93,26.418 13.881,26.865 C14.275,26.956 14.642,27 15,27 C15.358,27 15.725,26.956 16.119,26.865 C18.07,26.418 19.52,24.894 19.9,23 L20,23 L24,23 C24.553,23 25,22.553 25,22 C25,20.287 24.277,18.692 23,17.551 L23,12 Z" id="Page-1"></path>
        </g>
    </g>
</svg>