<?xml version="1.0" encoding="UTF-8"?>
<svg width="30px" height="30px" viewBox="0 0 30 30" version="1.1" xmlns="http://www.w3.org/2000/svg" xmlns:xlink="http://www.w3.org/1999/xlink">
    <!-- Generator: Sketch 46.1 (44463) - http://www.bohemiancoding.com/sketch -->
    <title>Icons / Utility / Help</title>
    <desc>Created with Sketch.</desc>
    <defs></defs>
    <g id="Symbols" stroke="none" stroke-width="1" fill="none" fill-rule="evenodd">
        <g id="Icons-/-Utility-/-Help">
            <path d="M13.8891602,16.9443359 C13.8891602,16.3063119 13.9666333,15.798179 14.121582,15.4199219 C14.2765307,15.0416648 14.5602193,14.6691099 14.9726562,14.3022461 C15.3850932,13.9353823 15.6596673,13.6368827 15.7963867,13.4067383 C15.9331062,13.1765939 16.0014648,12.9339205 16.0014648,12.6787109 C16.0014648,11.9085248 15.6459996,11.5234375 14.9350586,11.5234375 C14.5978173,11.5234375 14.3278005,11.6271148 14.125,11.8344727 C13.9221995,12.0418305 13.8162435,12.3277977 13.8071289,12.6923828 L11.824707,12.6923828 C11.8338217,11.8219358 12.1152316,11.1406275 12.6689453,10.6484375 C13.222659,10.1562475 13.9780226,9.91015625 14.9350586,9.91015625 C15.9012093,9.91015625 16.6508762,10.1437151 17.184082,10.6108398 C17.7172878,11.0779646 17.9838867,11.7376259 17.9838867,12.5898438 C17.9838867,12.9772155 17.897299,13.3429345 17.7241211,13.6870117 C17.5509431,14.031089 17.2478863,14.4127583 16.8149414,14.8320312 L16.2612305,15.3583984 C15.9148746,15.6910824 15.7166344,16.0807269 15.6665039,16.5273438 L15.6391602,16.9443359 L13.8891602,16.9443359 Z M13.690918,19.0429688 C13.690918,18.7376287 13.7945953,18.4858408 14.0019531,18.2875977 C14.2093109,18.0893545 14.4747705,17.9902344 14.7983398,17.9902344 C15.1219092,17.9902344 15.3873688,18.0893545 15.5947266,18.2875977 C15.8020844,18.4858408 15.9057617,18.7376287 15.9057617,19.0429688 C15.9057617,19.3437515 15.804363,19.5921214 15.6015625,19.7880859 C15.398762,19.9840505 15.1310238,20.0820312 14.7983398,20.0820312 C14.4656559,20.0820312 14.1979177,19.9840505 13.9951172,19.7880859 C13.7923167,19.5921214 13.690918,19.3437515 13.690918,19.0429688 Z" id="?" fill="#636769"></path>
            <circle id="Oval" stroke="#84898C" cx="15" cy="15" r="11.5"></circle>
        </g>
    </g>
</svg>