<?xml version="1.0" encoding="UTF-8"?>
<svg width="30px" height="30px" viewBox="0 0 30 30" version="1.1" xmlns="http://www.w3.org/2000/svg" xmlns:xlink="http://www.w3.org/1999/xlink">
    <!-- Generator: Sketch 46.1 (44463) - http://www.bohemiancoding.com/sketch -->
    <title>Icons / Utility / Popover</title>
    <desc>Created with Sketch.</desc>
    <defs></defs>
    <g id="Symbols" stroke="none" stroke-width="1" fill="none" fill-rule="evenodd">
        <g id="Icons-/-Utility-/-Popover" fill="#636769">
            <path d="M15,24 C10.0294373,24 6,19.9705627 6,15 C6,10.0294373 10.0294373,6 15,6 C19.9705627,6 24,10.0294373 24,15 C24,19.9705627 19.9705627,24 15,24 Z M17,18.8579655 C16.916049,18.8937942 16.7802479,18.9352205 16.5925926,18.9822457 C16.4049373,19.0292709 16.2370378,19.0527831 16.0888889,19.0527831 C15.7728379,19.0527831 15.5506179,19.0057586 15.4222222,18.9117083 C15.2938265,18.8176579 15.2296296,18.6407563 15.2296296,18.3809981 C15.2296296,18.2779905 15.2493825,18.1257208 15.2888889,17.9241843 C15.3283953,17.7226477 15.3728393,17.5435069 15.4222222,17.3867562 L16.0296296,15.4318618 C16.0888892,15.2527182 16.1296295,15.0556633 16.1518519,14.840691 C16.1740742,14.6257187 16.1851852,14.4756882 16.1851852,14.390595 C16.1851852,13.9785648 16.0259275,13.6437953 15.7074074,13.3862764 C15.3888873,13.1287575 14.9358054,13 14.3481481,13 C14.0222206,13 13.676545,13.0526226 13.3111111,13.1578695 C12.9456772,13.2631163 12.562965,13.3896346 12.162963,13.537428 L12,14.1420345 C12.1185191,14.1017272 12.260493,14.0591813 12.4259259,14.0143954 C12.5913589,13.9696095 12.7530856,13.9472169 12.9111111,13.9472169 C13.2321004,13.9472169 13.4493821,13.9964806 13.562963,14.0950096 C13.6765438,14.1935386 13.7333333,14.3682009 13.7333333,14.6190019 C13.7333333,14.7578382 13.714815,14.9112276 13.6777778,15.0791747 C13.6407406,15.2471218 13.595062,15.425143 13.5407407,15.6132438 L12.9333333,17.574856 C12.8790121,17.7808712 12.8395063,17.9656102 12.8148148,18.1290787 C12.7901233,18.2925472 12.7777778,18.4526544 12.7777778,18.609405 C12.7777778,19.012478 12.9419737,19.3450083 13.2703704,19.6070058 C13.5987671,19.8690032 14.0592563,20 14.6518519,20 C15.037039,20 15.3753072,19.9540951 15.6666667,19.8622841 C15.9580261,19.770473 16.3481457,19.637237 16.837037,19.462572 L17,18.8579655 Z M17,11.5040872 C17,11.0899162 16.853691,10.7356963 16.5610687,10.4414169 C16.2684464,10.1471375 15.9160326,10 15.5038168,10 C15.091601,10 14.737915,10.1471375 14.4427481,10.4414169 C14.1475812,10.7356963 14,11.0899162 14,11.5040872 C14,11.9182582 14.1475812,12.2711157 14.4427481,12.5626703 C14.737915,12.8542249 15.091601,13 15.5038168,13 C15.9160326,13 16.2684464,12.8542249 16.5610687,12.5626703 C16.853691,12.2711157 17,11.9182582 17,11.5040872 Z" id="Combined-Shape"></path>
        </g>
    </g>
</svg>