<?xml version="1.0" encoding="UTF-8"?>
<svg width="80px" height="80px" viewBox="0 0 80 80" version="1.1" xmlns="http://www.w3.org/2000/svg" xmlns:xlink="http://www.w3.org/1999/xlink">
    <!-- Generator: Sketch 46.1 (44463) - http://www.bohemiancoding.com/sketch -->
    <title>Icons / Illustration / Kannettava Tietokone</title>
    <desc>Created with Sketch.</desc>
    <defs></defs>
    <g id="Symbols" stroke="none" stroke-width="1" fill="none" fill-rule="evenodd">
        <g id="Icons-/-Illustration-/-Kannettava-Tietokone">
            <path d="M13.414,61 L66.586,61 L70,57.586 L70,57 L47.414,57 L45.414,59 L34.586,59 L32.586,57 L10,57 L10,57.586 L13.414,61 Z M67.414,63 L12.586,63 L8,58.414 L8,55 L33.414,55 L35.414,57 L44.586,57 L46.586,55 L72,55 L72,58.414 L67.414,63 L67.414,63 Z" id="Fill-60" fill="#A5ACB0"></path>
            <path d="M68,53 L66,53 L66,21 C66,19.897 65.103,19 64,19 L16,19 C14.897,19 14,19.897 14,21 L14,53 L12,53 L12,21 C12,18.794 13.794,17 16,17 L64,17 C66.206,17 68,18.794 68,21 L68,53" id="Fill-61" fill="#A5ACB0"></path>
            <polygon id="Fill-62" fill="#EA7125" points="35 51 37 51 37 49 35 49"></polygon>
            <polygon id="Fill-63" fill="#EA7125" points="31 51 33 51 33 49 31 49"></polygon>
            <polygon id="Fill-64" fill="#EA7125" points="39 51 41 51 41 49 39 49"></polygon>
            <polygon id="Fill-65" fill="#EA7125" points="43 51 45 51 45 49 43 49"></polygon>
            <polygon id="Fill-66" fill="#EA7125" points="47 51 49 51 49 49 47 49"></polygon>
            <polyline id="Fill-67" fill="#A5ACB0" points="64 51 51 51 51 49 62 49 62 23 18 23 18 49 29 49 29 51 16 51 16 21 64 21 64 51"></polyline>
        </g>
    </g>
</svg>